<svg xmlns="http://www.w3.org/2000/svg" viewBox="0 0 24 24">
  <!-- Haunts menu-bar template glyph. Single-colour silhouette with cut-out eyes
       (even-odd). Set image.isTemplate = true so macOS tints it for light/dark. -->
  <path fill="#000" fill-rule="evenodd" clip-rule="evenodd" d="
    M12 2.5 C8 2.5 4.8 5.7 4.8 9.7 V18.9
    C4.8 20 6.1 20.6 7 19.8 L8.2 18.7 C8.6 18.3 9.3 18.3 9.7 18.7 L10.9 19.8
    C11.5 20.4 12.5 20.4 13.1 19.8 L14.3 18.7 C14.7 18.3 15.4 18.3 15.8 18.7 L17 19.8
    C17.9 20.6 19.2 20 19.2 18.9 V9.7 C19.2 5.7 16 2.5 12 2.5 Z
    M9.9 9.1 A1.35 1.35 0 1 0 9.9 11.8 A1.35 1.35 0 1 0 9.9 9.1 Z
    M14.1 9.1 A1.35 1.35 0 1 0 14.1 11.8 A1.35 1.35 0 1 0 14.1 9.1 Z"/>
</svg>
